<?xml version="1.0" encoding="utf-8"?>
<!-- Generator: $$$/GeneralStr/196=Adobe Illustrator 27.6.0, SVG Export Plug-In . SVG Version: 6.00 Build 0)  -->
<svg version="1.1" id="uuid-a8576f02-d662-49c3-9f24-bb98e5956685"
	 xmlns="http://www.w3.org/2000/svg" xmlns:xlink="http://www.w3.org/1999/xlink" x="0px" y="0px" viewBox="0 0 61.6 15.6"
	 style="enable-background:new 0 0 61.6 15.6;" xml:space="preserve">
<style type="text/css">
	.st0{fill:#FFFFFF;}
</style>
<g id="uuid-08792563-a299-4a6a-b2fe-2bf84e026575">
	<polygon class="st0" points="35.5,15.6 29.7,15.6 23.6,0 29.4,0 	"/>
	<polygon class="st0" points="25.3,5.4 24.1,9.3 26.8,9.3 	"/>
	<polygon class="st0" points="46.6,0 42.8,0 40.6,0 31.1,0 42.8,15.6 42.8,4.4 46.6,4.4 	"/>
	<circle class="st0" cx="1.4" cy="1.3" r="1.4"/>
	<circle class="st0" cx="1.4" cy="14.6" r="1"/>
	<circle class="st0" cx="1.4" cy="5.1" r="1"/>
	<circle class="st0" cx="1.4" cy="10.5" r="0.8"/>
	<circle class="st0" cx="1.4" cy="1.3" r="1.4"/>
	<circle class="st0" cx="9.3" cy="12" r="1"/>
	<circle class="st0" cx="3.6" cy="4.4" r="1"/>
	<circle class="st0" cx="6.8" cy="8.7" r="0.8"/>
	<circle class="st0" cx="17.3" cy="1.3" r="1.4"/>
	<circle class="st0" cx="17.3" cy="14.6" r="1"/>
	<circle class="st0" cx="17.3" cy="5.1" r="1"/>
	<circle class="st0" cx="17.3" cy="10.5" r="0.8"/>
	<circle class="st0" cx="17.3" cy="1.3" r="1.4"/>
	<circle class="st0" cx="15.1" cy="4.4" r="1"/>
	<circle class="st0" cx="11.8" cy="8.7" r="0.8"/>
	<path class="st0" d="M44.1,6.1h0.5l0.4,1.2l0,0l0.4-1.2H46v1.7h-0.3V6.4l0,0l-0.5,1.4h-0.2l-0.5-1.4l0,0v1.4h-0.3L44.1,6.1
		C44.1,6.1,44.1,6.1,44.1,6.1z"/>
	<path class="st0" d="M46.8,6.1h0.3l0.7,1.7h-0.3l-0.2-0.4h-0.7l-0.2,0.4h-0.3L46.8,6.1C46.8,6.1,46.8,6.1,46.8,6.1z M47.2,7.1
		L47,6.4l-0.3,0.7C46.7,7.1,47.2,7.1,47.2,7.1z"/>
	<path class="st0" d="M48.8,6.4c0,0-0.1-0.1-0.1-0.1s-0.1,0-0.2,0h-0.1l-0.1,0c0,0,0,0-0.1,0.1c0,0,0,0.1,0,0.1s0,0.1,0,0.1
		c0,0,0,0,0.1,0.1c0,0,0,0,0.1,0s0.1,0,0.1,0s0.1,0,0.2,0s0.1,0,0.2,0.1S49,7,49.1,7.1s0,0.1,0,0.2s0,0.2,0,0.3S49,7.7,48.9,7.7
		s-0.1,0.1-0.2,0.1c-0.1,0-0.2,0-0.2,0c-0.1,0-0.2,0-0.3,0c-0.1,0-0.2-0.1-0.3-0.2l0.2-0.2c0,0,0.1,0.1,0.2,0.1c0.1,0,0.1,0,0.2,0
		h0.1l0.1,0l0.1-0.1c0,0,0-0.1,0-0.1s0-0.1,0-0.1s0,0-0.1-0.1s-0.1,0-0.1,0s-0.1,0-0.1,0s-0.1,0-0.2,0c0,0-0.1,0-0.1-0.1
		c0,0-0.1-0.1-0.1-0.1c0,0,0-0.1,0-0.2s0-0.2,0-0.2s0.1-0.1,0.1-0.2s0.1-0.1,0.2-0.1s0.1,0,0.2,0s0.2,0,0.3,0s0.2,0.1,0.2,0.1
		L48.8,6.4L48.8,6.4z"/>
	<path class="st0" d="M49.7,6.3h-0.5V6.1h1.3v0.3H50v1.5h-0.3C49.7,7.8,49.7,6.3,49.7,6.3z"/>
	<path class="st0" d="M50.7,6.1h1.1v0.3H51v0.4h0.8V7H51v0.5h0.9v0.3h-1.2L50.7,6.1L50.7,6.1L50.7,6.1z"/>
	<path class="st0" d="M52.1,6.1h0.6c0.1,0,0.2,0,0.2,0s0.1,0,0.2,0.1c0,0,0.1,0.1,0.1,0.2c0,0,0,0.1,0,0.2c0,0.1,0,0.2-0.1,0.3
		C53.1,7,53,7,53,7.1l0.4,0.8H53l-0.4-0.7h-0.2v0.7h-0.3L52.1,6.1L52.1,6.1L52.1,6.1z M52.7,6.8h0.1c0,0,0.1,0,0.1,0s0,0,0.1-0.1
		s0-0.1,0-0.1s0-0.1,0-0.1c0,0,0,0-0.1-0.1c0,0-0.1,0-0.1,0h-0.4v0.5L52.7,6.8C52.7,6.8,52.7,6.8,52.7,6.8z"/>
	<path class="st0" d="M54.2,6.1h1.1v0.3h-0.8v0.4h0.8V7h-0.8v0.5h0.9v0.3h-1.2L54.2,6.1L54.2,6.1L54.2,6.1z"/>
	<path class="st0" d="M55.7,6.1h0.4l0.8,1.3l0,0V6.1h0.3v1.7h-0.4L56,6.4l0,0v1.3h-0.3V6.1C55.7,6.1,55.7,6.1,55.7,6.1z"/>
	<path class="st0" d="M44.7,8.9h0.3l0.7,1.7h-0.3l-0.2-0.4h-0.7l-0.2,0.4h-0.3L44.7,8.9C44.7,8.9,44.7,8.9,44.7,8.9z M45,10
		l-0.3-0.7L44.5,10C44.5,10,45.1,10,45,10z"/>
	<path class="st0" d="M45.8,8.9h0.6c0.1,0,0.2,0,0.2,0s0.1,0,0.2,0.1c0,0,0.1,0.1,0.1,0.2c0,0,0,0.1,0,0.2c0,0.1,0,0.2-0.1,0.3
		c-0.1,0.1-0.2,0.1-0.3,0.2l0.4,0.8h-0.3L46.3,10h-0.2v0.7h-0.3L45.8,8.9L45.8,8.9L45.8,8.9z M46.4,9.7h0.1c0,0,0.1,0,0.1,0
		c0,0,0,0,0.1-0.1s0-0.1,0-0.1s0-0.1,0-0.1s0,0-0.1-0.1c0,0-0.1,0-0.1,0h-0.4v0.5L46.4,9.7C46.4,9.7,46.4,9.7,46.4,9.7z"/>
	<path class="st0" d="M48.5,9.4c0,0-0.1-0.1-0.2-0.1s-0.2-0.1-0.2-0.1c-0.1,0-0.2,0-0.2,0s-0.1,0.1-0.2,0.1c0,0-0.1,0.1-0.1,0.2
		s0,0.2,0,0.3s0,0.2,0,0.3s0.1,0.1,0.1,0.2c0,0,0.1,0.1,0.2,0.1c0.1,0,0.1,0,0.2,0s0.2,0,0.3,0s0.1-0.1,0.2-0.1l0.3,0.2
		c-0.1,0.1-0.2,0.2-0.3,0.2s-0.2,0.1-0.4,0.1c-0.1,0-0.3,0-0.3-0.1c-0.1,0-0.2-0.1-0.3-0.2c-0.1-0.1-0.1-0.2-0.2-0.3
		c0-0.1-0.1-0.2-0.1-0.4c0-0.1,0-0.3,0.1-0.4s0.1-0.2,0.2-0.3C47.6,9,47.7,9,47.8,8.9c0.1,0,0.2,0,0.3,0h0.2c0,0,0.1,0,0.2,0
		c0,0,0.1,0,0.2,0.1s0.1,0.1,0.1,0.1L48.5,9.4L48.5,9.4L48.5,9.4z"/>
	<path class="st0" d="M49,8.9h0.3v0.7h0.8V8.9h0.3v1.7h-0.3V9.9h-0.8v0.8H49V8.9z"/>
	<path class="st0" d="M50.7,8.9H51v1.7h-0.3V8.9z"/>
	<path class="st0" d="M51.7,9.2h-0.5V8.9h1.3v0.3H52v1.5h-0.3C51.7,10.7,51.7,9.2,51.7,9.2z"/>
	<path class="st0" d="M52.8,8.9h1.1v0.3h-0.8v0.4h0.8v0.3h-0.8v0.5h0.9v0.3h-1.2L52.8,8.9L52.8,8.9L52.8,8.9z"/>
	<path class="st0" d="M55.4,9.4c0,0-0.1-0.1-0.2-0.1s-0.1,0-0.2,0s-0.2,0-0.2,0s-0.1,0.1-0.2,0.1c0,0-0.1,0.1-0.1,0.2s0,0.2,0,0.3
		s0,0.2,0,0.3s0.1,0.1,0.1,0.2c0,0,0.1,0.1,0.2,0.1c0.1,0,0.1,0,0.2,0s0.2,0,0.3,0s0.1-0.1,0.2-0.1l0.3,0.2
		c-0.1,0.1-0.2,0.2-0.3,0.2s-0.2,0.1-0.4,0.1c-0.1,0-0.3,0-0.3-0.1c-0.1,0-0.2-0.1-0.3-0.2c-0.1-0.1-0.1-0.2-0.2-0.3
		c0-0.1-0.1-0.2-0.1-0.4c0-0.1,0-0.3,0.1-0.4s0.1-0.2,0.2-0.3C54.5,9.1,54.6,9,54.7,9c0.1,0,0.2,0,0.3,0h0.2c0,0,0.1,0,0.2,0
		c0,0,0.1,0,0.2,0.1s0.1,0.1,0.1,0.1L55.4,9.4L55.4,9.4L55.4,9.4z"/>
	<path class="st0" d="M56.2,9.2h-0.5V8.9H57v0.3h-0.5v1.5h-0.3C56.2,10.7,56.2,9.2,56.2,9.2z"/>
	<path class="st0" d="M58.5,10c0,0.1,0,0.2,0,0.3s-0.1,0.2-0.1,0.2s-0.1,0.1-0.2,0.1s-0.2,0-0.3,0s-0.2,0-0.3,0s-0.2-0.1-0.2-0.1
		s-0.1-0.1-0.1-0.2c0-0.1,0-0.2,0-0.3V8.9h0.3v1.2c0,0,0,0.1,0,0.1c0,0,0.1,0.1,0.1,0.1c0,0,0.1,0,0.2,0s0.1,0,0.2,0
		c0,0,0.1,0,0.1-0.1s0-0.1,0-0.1V8.9h0.3V10L58.5,10z"/>
	<path class="st0" d="M58.9,8.9h0.6c0.1,0,0.2,0,0.2,0c0.1,0,0.1,0,0.2,0.1c0,0,0.1,0.1,0.1,0.2c0,0,0,0.1,0,0.2
		c0,0.1,0,0.2-0.1,0.3c-0.1,0.1-0.2,0.1-0.3,0.2l0.4,0.8h-0.3L59.4,10h-0.2v0.7h-0.3L58.9,8.9L58.9,8.9L58.9,8.9z M59.4,9.7h0.1
		c0,0,0.1,0,0.1,0c0,0,0,0,0.1-0.1s0-0.1,0-0.1s0-0.1,0-0.1c0,0,0,0-0.1-0.1c0,0-0.1,0-0.1,0h-0.4v0.5L59.4,9.7
		C59.4,9.7,59.4,9.7,59.4,9.7z"/>
	<path class="st0" d="M60.4,8.9h1.1v0.3h-0.8v0.4h0.8v0.3h-0.8v0.5h0.9v0.3h-1.2L60.4,8.9L60.4,8.9L60.4,8.9z"/>
	<path class="st0" d="M44.5,12.1h-0.5v-0.3h1.3v0.3h-0.5v1.5h-0.3C44.4,13.5,44.4,12.1,44.5,12.1z"/>
	<path class="st0" d="M45.5,11.8h0.6c0.1,0,0.2,0,0.2,0c0.1,0,0.1,0,0.2,0.1c0,0,0.1,0.1,0.1,0.2c0,0,0,0.1,0,0.2
		c0,0.1,0,0.2-0.1,0.3c-0.1,0.1-0.2,0.1-0.3,0.2l0.4,0.8h-0.3L46,12.8h-0.2v0.7h-0.3L45.5,11.8L45.5,11.8L45.5,11.8z M46,12.5h0.1
		c0,0,0.1,0,0.1,0c0,0,0,0,0.1-0.1s0-0.1,0-0.1s0-0.1,0-0.1c0,0,0,0-0.1-0.1c0,0-0.1,0-0.1,0h-0.4v0.5L46,12.5
		C46,12.5,46,12.5,46,12.5z"/>
	<path class="st0" d="M47.5,11.8h0.3l0.7,1.7h-0.3L48,13.2h-0.7l-0.2,0.4h-0.3L47.5,11.8C47.5,11.8,47.5,11.8,47.5,11.8z M47.9,12.9
		l-0.3-0.7l-0.3,0.7C47.4,12.9,47.9,12.9,47.9,12.9z"/>
	<path class="st0" d="M48.7,11.8h0.4l0.8,1.3l0,0v-1.3h0.3v1.7h-0.4L49,12.2l0,0v1.4h-0.3V11.8C48.7,11.8,48.7,11.8,48.7,11.8z"/>
	<path class="st0" d="M51.4,12.2c0,0-0.1-0.1-0.1-0.1c0,0-0.1,0-0.2,0H51l-0.1,0c0,0,0,0-0.1,0.1c0,0,0,0.1,0,0.1s0,0.1,0,0.1
		c0,0,0,0,0.1,0.1c0,0,0,0,0.1,0s0.1,0,0.1,0s0.1,0,0.2,0c0,0,0.1,0,0.2,0.1s0.1,0.1,0.1,0.1s0,0.1,0,0.2s0,0.2,0,0.3
		s-0.1,0.1-0.1,0.2s-0.1,0.1-0.2,0.1c-0.1,0-0.2,0-0.2,0c-0.1,0-0.2,0-0.3,0c-0.1,0-0.2-0.1-0.3-0.2l0.2-0.2c0,0,0.1,0.1,0.2,0.1
		c0.1,0,0.1,0,0.2,0h0.1l0.1,0l0.1-0.1c0,0,0-0.1,0-0.1s0-0.1,0-0.1s0,0-0.1-0.1s-0.1,0-0.1,0s-0.1,0-0.1,0s-0.1,0-0.2,0
		c0,0-0.1,0-0.1-0.1c0,0-0.1-0.1-0.1-0.1c0,0,0-0.1,0-0.2s0-0.2,0-0.2c0-0.1,0.1-0.1,0.1-0.2s0.1-0.1,0.2-0.1s0.1,0,0.2,0
		s0.2,0,0.3,0s0.2,0.1,0.2,0.1L51.4,12.2L51.4,12.2z"/>
	<path class="st0" d="M51.9,11.8h0.5l0.4,1.2l0,0l0.4-1.2h0.5v1.7h-0.3v-1.4l0,0l-0.5,1.4h-0.2l-0.5-1.4l0,0v1.4h-0.3L51.9,11.8
		C51.9,11.8,51.9,11.8,51.9,11.8z"/>
	<path class="st0" d="M54.1,11.8h1.1v0.3h-0.8v0.4h0.8v0.3h-0.8v0.5h0.9v0.3h-1.2L54.1,11.8L54.1,11.8L54.1,11.8z"/>
	<path class="st0" d="M55.5,11.8h0.6c0.1,0,0.2,0,0.3,0s0.2,0.1,0.3,0.1s0.2,0.2,0.2,0.3s0.1,0.3,0.1,0.4c0,0.2,0,0.3-0.1,0.4
		c0,0.1-0.1,0.2-0.2,0.3c-0.1,0.1-0.2,0.1-0.3,0.2s-0.2,0-0.3,0h-0.6V11.8L55.5,11.8z M56.1,13.3c0.1,0,0.2,0,0.2,0s0.1,0,0.2-0.1
		c0,0,0.1-0.1,0.2-0.2c0-0.1,0-0.2,0-0.3s0-0.2,0-0.3s-0.1-0.1-0.2-0.2c0,0-0.1-0.1-0.2-0.1s-0.2,0-0.2,0h-0.3v1.2
		C55.8,13.3,56.1,13.3,56.1,13.3z"/>
	<path class="st0" d="M57.3,11.8h0.3v1.7h-0.3V11.8z"/>
	<path class="st0" d="M58.6,11.8h0.3l0.7,1.7h-0.3l-0.2-0.4h-0.7l-0.2,0.4h-0.3L58.6,11.8C58.6,11.8,58.6,11.8,58.6,11.8z
		 M58.9,12.9l-0.3-0.7l-0.3,0.7C58.4,12.9,58.9,12.9,58.9,12.9z"/>
</g>
</svg>
